<svg viewBox="0 -46 512 512" xmlns="http://www.w3.org/2000/svg"><path d="m361 300v60c0 33 27 60 60 60s60-27 60-60v-60zm0 0" fill="#5a5a5a"/><path d="m481 300v60c0 33-27 60-60 60v-120zm0 0" fill="#444"/><path d="m31 300v60c0 33 27 60 60 60s60-27 60-60v-60zm0 0" fill="#5a5a5a"/><path d="m151 300v60c0 33-27 60-60 60v-120zm0 0" fill="#444"/><path d="m391 45c0 24.898438-20.097656 45-45 45h-180c-24.902344 0-45-20.101562-45-45 0-24.902344 20.097656-45 45-45h180c24.902344 0 45 20.097656 45 45zm0 0" fill="#fdbf00"/><path d="m346 90h-90v-90h90c24.902344 0 45 20.097656 45 45 0 24.898438-20.097656 45-45 45zm0 0" fill="#ff9f00"/><path d="m481 210h-450l60-150h330zm0 0" fill="#5a5a5a"/><path d="m481 210h-225v-150h165zm0 0" fill="#5a5a5a"/><path d="m436.601562 180h-361.203124l36-90h289.203124zm0 0" fill="#d9e7ec"/><path d="m436.601562 180h-180.601562v-90h144.601562zm0 0" fill="#c5d3dd"/><path d="m391 195h-30c0-24.902344-20.097656-45-45-45s-45 20.097656-45 45h-30c0-16.800781 5.398438-32.402344 15-44.699219 13.5-18.300781 35.398438-30.300781 60-30.300781 41.398438 0 75 33.601562 75 75zm0 0" fill="#444"/><path d="m391 195h-30c0-24.902344-20.097656-45-45-45s-45 20.097656-45 45h-15v-44.699219c13.5-18.300781 35.398438-30.300781 60-30.300781 41.398438 0 75 33.601562 75 75zm0 0" fill="#292929"/><path d="m512 240-31 15 31 15v60h-91l-60-30h-210l-60 30h-91v-60l31-15-31-15v-60h512zm0 0" fill="#6e6e6e"/><path d="m512 240-31 15 31 15v60h-91l-60-30h-105v-120h256zm0 0" fill="#5a5a5a"/><path d="m451 240h61v30h-61zm0 0" fill="#9facba"/><path d="m0 240h61v30h-61zm0 0" fill="#b6c4cf"/><path d="m421 330h-330l60-60h210zm0 0" fill="#b6c4cf"/><path d="m361 270 60 60h-165v-60zm0 0" fill="#9facba"/></svg>