<svg viewBox="0 -46 512 512" xmlns="http://www.w3.org/2000/svg"><path d="m91 15h30v60h-30zm0 0" fill="#b6c4cf"/><path d="m211 15h30v60h-30zm0 0" fill="#b6c4cf"/><path d="m331 15h30v60h-30zm0 0" fill="#9facba"/><path d="m226 15h15v60h-15zm0 0" fill="#9facba"/><path d="m452 128.699219v222.601562l-69.699219 68.699219h-312.601562l-69.699219-68.699219v-141.300781l31-15-31-15v-51.300781l69.699219-68.699219h312.601562zm0 0" fill="#d9e7ec"/><path d="m452 128.699219v222.601562l-69.699219 68.699219h-156.300781v-360h156.300781zm0 0" fill="#b6c4cf"/><path d="m482 150h30v210h-30zm0 0" fill="#9facba"/><path d="m61 0h90v30h-90zm0 0" fill="#d9e7ec"/><path d="m181 0h90v30h-90zm0 0" fill="#d9e7ec"/><path d="m301 0h90v30h-90zm0 0" fill="#b6c4cf"/><path d="m497 210v-30h-497v30h61v45c0 41.398438 33.601562 75 75 75h361v-30h-91c-24.902344 0-45-20.101562-45-45v-45zm-361 90c-24.902344 0-45-20.101562-45-45v-45h60v45c0 16.800781 6 32.398438 15.300781 45zm90 0c-24.902344 0-45-20.101562-45-45v-45h60v45c0 16.800781 6 32.398438 15.300781 45zm90 0c-24.902344 0-45-20.101562-45-45v-45h60v45c0 16.800781 6 32.398438 15.300781 45zm0 0" fill="#b6c4cf"/><path d="m497 210v-30h-271v30h15v45c0 16.800781 6 32.398438 15.300781 45h-30.300781v30h271v-30h-91c-24.902344 0-45-20.101562-45-45v-45zm-181 90c-24.902344 0-45-20.101562-45-45v-45h60v45c0 16.800781 6 32.398438 15.300781 45zm0 0" fill="#9facba"/><path d="m226 0h45v30h-45zm0 0" fill="#b6c4cf"/></svg>