<svg viewBox="-1 0 512 512.00046" xmlns="http://www.w3.org/2000/svg"><path d="m401.734375 417.429688-146.777344 53.09375-94.882812 34.191406-10.496094-28.195313 105.378906-38.09375 136.277344-49.191406zm0 0" fill="#5a5a5a"/><path d="m401.734375 417.429688-146.777344 53.09375v-32.097657l136.277344-49.191406zm0 0" fill="#444"/><path d="m381.636719 44.691406-126.679688 108.882813-195.066406 170.269531-19.496094-22.496094 214.5625-187.367187 107.183594-92.085938zm0 0" fill="#5a5a5a"/><path d="m381.636719 44.691406-126.679688 108.882813v-39.59375l107.183594-92.085938zm0 0" fill="#444"/><path d="m0 391.933594c0-34.886719 14.027344-67.925782 40.242188-90.65625 76.878906-66.605469 198.71875-12.6875 198.71875 90.65625 0 50.253906-31.753907 95.566406-79.03125 112.777344-77.070313 28.09375-159.929688-28.296876-159.929688-112.777344zm0 0" fill="#b6c4cf"/><path d="m59.898438 323.949219c-19.640626 17.015625-30.902344 41.800781-30.902344 67.984375 0 63.378906 62.875 105.613281 120.683594 84.597656 35.457031-12.917969 59.285156-46.914062 59.285156-84.597656 0-77.632813-91.554688-117.898438-149.066406-67.984375zm0 0" fill="#d9e7ec"/><path d="m118.980469 451.925781c-33.085938 0-59.988281-26.90625-59.988281-59.992187 0-33.085938 26.902343-59.988282 59.988281-59.988282 33.085937 0 59.988281 26.902344 59.988281 59.988282 0 33.085937-26.902344 59.992187-59.988281 59.992187zm0 0" fill="#b6c4cf"/><path d="m448.90625 364.285156-29.175781-6.914062 59.578125-253.488282 29.175781 6.914063zm0 0" fill="#444"/><path d="m118.980469 361.941406c-16.535157 0-29.996094 13.457032-29.996094 29.992188s13.460937 29.996094 29.996094 29.996094c16.535156 0 29.996093-13.460938 29.996093-29.996094s-13.460937-29.992188-29.996093-29.992188zm0 0" fill="#d9e7ec"/><path d="m420.929688 179.96875c-49.621094 0-89.984376-40.363281-89.984376-89.984375 0-26.097656 11.320313-50.878906 31.050782-68 16.398437-14.21875 37.191406-21.984375 58.933594-21.984375 57.832031 0 100.984374 54.140625 87.554687 110.796875-9.636719 40.730469-45.636719 69.171875-87.554687 69.171875zm0 0" fill="#9facba"/><path d="m420.929688 29.996094c-14.480469 0-28.289063 5.128906-39.292969 14.644531-13.152344 11.410156-20.695313 27.945313-20.695313 45.34375 0 33.085937 26.902344 59.992187 59.988282 59.992187 27.945312 0 51.949218-18.953124 58.378906-46.09375 8.949218-37.882812-19.890625-73.886718-58.378906-73.886718zm0 0" fill="#c5d3dd"/><path d="m420.929688 119.980469c-16.535157 0-29.996094-13.460938-29.996094-29.996094s13.460937-29.996094 29.996094-29.996094c16.535156 0 29.996093 13.460938 29.996093 29.996094s-13.460937 29.996094-29.996093 29.996094zm0 0" fill="#9facba"/><path d="m300.949219 346.941406c0-41.34375 33.640625-74.988281 74.988281-74.988281 48.335938 0 84.1875 45.367187 72.96875 92.332031-5.832031 24.601563-23.507812 44.464844-47.308594 53.132813-48.382812 17.59375-100.648437-17.792969-100.648437-70.476563zm0 0" fill="#9facba"/><path d="m375.9375 301.949219c-24.808594 0-44.992188 20.183593-44.992188 44.992187 0 31.742188 31.515626 52.816406 60.398438 42.300782 14.265625-5.199219 24.886719-17.121094 28.386719-31.871094 6.683593-28.601563-15.046875-55.421875-43.792969-55.421875zm0 0" fill="#c5d3dd"/><path d="m390.933594 346.941406c0 8.285156-6.714844 15-14.996094 15s-14.996094-6.714844-14.996094-15c0-8.28125 6.714844-14.996094 14.996094-14.996094s14.996094 6.714844 14.996094 14.996094zm0 0" fill="#9facba"/></svg>