<svg viewBox="-61 0 512 512.00002" xmlns="http://www.w3.org/2000/svg"><path d="m194.886719 0c-107.339844 0-194.886719 88.546875-194.886719 195.886719 0 42.574219 13.492188 83.050781 38.976562 116.929687 1.800782 2.398438 3.597657 4.796875 5.398438 6.597656l150.511719 192.585938 150.511719-192.289062c1.800781-2.097657 3.597656-4.496094 5.398437-6.894532 25.484375-33.878906 38.976563-74.355468 38.976563-116.929687 0-107.339844-87.550782-195.886719-194.886719-195.886719zm0 0" fill="#ff4d4d"/><path d="m389.773438 195.886719c0 42.574219-13.492188 83.050781-38.980469 116.929687-1.796875 2.398438-3.597657 4.796875-5.394531 6.894532l-150.511719 192.289062v-512c107.335937 0 194.886719 88.546875 194.886719 195.886719zm0 0" fill="#ff001e"/><path d="m194.886719 60.964844c-74.355469 0-134.921875 60.566406-134.921875 134.921875s60.566406 134.917969 134.921875 134.917969 134.921875-60.5625 134.921875-134.917969-60.566406-134.921875-134.921875-134.921875zm0 0" fill="#5a5a5a"/><path d="m329.808594 195.886719c0 74.355469-60.566406 134.917969-134.921875 134.917969v-269.839844c74.355469 0 134.921875 60.566406 134.921875 134.921875zm0 0" fill="#444"/><path d="m284.832031 195.886719 13.492188 14.988281c-2.699219 17.691406-9.292969 33.882812-19.789063 47.675781l-30.582031-.902343 9.597656 21.886718c-13.792969 10.496094-29.984375 17.089844-47.675781 19.789063l-14.988281-13.492188-14.992188 13.492188c-17.691406-2.699219-33.882812-9.292969-47.675781-19.789063l.902344-30.582031-21.886719 9.59375c-10.496094-13.792969-17.089844-29.980469-19.789063-47.671875l28.484376-14.992188-28.484376-14.988281c2.699219-17.691406 9.292969-33.882812 19.789063-47.675781l30.582031.902344-9.59375-21.886719c13.792969-10.496094 29.980469-17.089844 47.671875-19.789063l14.992188 13.492188 14.992187-13.492188c17.6875 2.699219 33.878906 9.292969 47.671875 19.789063l-.902343 30.582031 21.886718-9.59375c10.496094 13.792969 17.089844 29.980469 19.789063 47.671875zm0 0" fill="#b6c4cf"/><path d="m284.832031 195.886719 13.492188 14.988281c-2.699219 17.691406-9.292969 33.882812-19.789063 47.675781l-30.582031-.902343 9.597656 21.886718c-13.792969 10.496094-29.984375 17.089844-47.675781 19.789063l-14.988281-13.492188v-179.894531l14.988281-13.492188c17.691406 2.699219 33.882812 9.296876 47.675781 19.789063l-.902343 30.582031 21.886718-9.59375c10.496094 13.792969 17.089844 29.980469 19.789063 47.671875zm0 0" fill="#9facba"/><path d="m209.878906 92.445312v43.476563h-29.984375v-43.476563c4.796875-.597656 9.894531-1.5 14.992188-1.5 5.09375 0 10.195312.902344 14.992187 1.5zm0 0" fill="#d9e7ec"/><path d="m134.921875 180.894531h-43.460937c-.714844 4.9375-1.511719 9.859375-1.511719 14.992188 0 5.132812.796875 10.050781 1.511719 14.988281h43.460937zm0 0" fill="#d9e7ec"/><path d="m247.867188 164.101562 30.773437-30.773437c-6.035156-8.050781-13.144531-15.164063-21.199219-21.199219l-30.773437 30.773438zm0 0" fill="#c5d3dd"/><path d="m254.851562 210.875h43.457032c.714844-4.9375 1.515625-9.855469 1.515625-14.988281 0-5.132813-.800781-10.054688-1.515625-14.992188h-43.457032zm0 0" fill="#c5d3dd"/><g fill="#d9e7ec"><path d="m141.902344 227.667969-30.769532 30.773437c6.03125 8.050782 13.144532 15.164063 21.195313 21.199219l30.773437-30.773437zm0 0"/><path d="m209.878906 255.851562v43.472657c-4.796875.597656-9.898437 1.5-14.992187 1.5-5.097657 0-10.195313-.902344-14.992188-1.5v-43.472657zm0 0"/><path d="m163.101562 142.902344-30.773437-30.773438c-8.050781 6.035156-15.164063 13.148438-21.195313 21.199219l30.769532 30.773437zm0 0"/></g><path d="m226.667969 248.867188 30.773437 30.773437c8.054688-6.035156 15.164063-13.148437 21.199219-21.199219l-30.773437-30.773437zm0 0" fill="#c5d3dd"/><path d="m209.878906 92.445312v43.476563h-14.992187v-44.976563c5.097656 0 10.195312.902344 14.992187 1.5zm0 0" fill="#c5d3dd"/><path d="m194.886719 255.851562h14.992187v43.472657c-4.796875.597656-9.898437 1.5-14.992187 1.5zm0 0" fill="#c5d3dd"/><path d="m194.886719 120.929688c-41.375 0-74.957031 33.578124-74.957031 74.957031 0 41.375 33.582031 74.953125 74.957031 74.953125s74.957031-33.578125 74.957031-74.953125c0-41.378907-33.582031-74.957031-74.957031-74.957031zm0 0" fill="#d9e7ec"/><path d="m269.84375 195.886719c0 41.375-33.582031 74.953125-74.957031 74.953125v-149.910156c41.375 0 74.957031 33.578124 74.957031 74.957031zm0 0" fill="#c5d3dd"/><path d="m194.886719 150.910156c-24.886719 0-44.972657 20.089844-44.972657 44.976563s20.085938 44.972656 44.972657 44.972656 44.972656-20.085937 44.972656-44.972656-20.085937-44.976563-44.972656-44.976563zm0 0" fill="#b6c4cf"/><path d="m239.859375 195.886719c0 24.886719-20.085937 44.972656-44.972656 44.972656v-89.949219c24.886719 0 44.972656 20.089844 44.972656 44.976563zm0 0" fill="#9facba"/><path d="m194.886719 210.875c-8.265625 0-14.992188-6.722656-14.992188-14.988281 0-8.269531 6.726563-14.992188 14.992188-14.992188s14.992187 6.722657 14.992187 14.992188c0 8.265625-6.726562 14.988281-14.992187 14.988281zm0 0" fill="#5a5a5a"/><path d="m209.878906 195.886719c0-8.269531-6.726562-14.992188-14.992187-14.992188v29.980469c8.265625 0 14.992187-6.722656 14.992187-14.988281zm0 0" fill="#444"/></svg>