<svg viewBox="0 0 512 512" xmlns="http://www.w3.org/2000/svg"><path d="m241 135h30v242h-30zm0 0" fill="#444"/><path d="m422 135h30v242h-30zm0 0" fill="#292929"/><path d="m437 241v30h-377v-136h30v106zm0 0" fill="#444"/><path d="m256 135h15v242h-15zm0 0" fill="#292929"/><path d="m256 241h181v30h-181zm0 0" fill="#292929"/><path d="m75 150c-41.351562 0-75-33.648438-75-75s33.648438-75 75-75 75 33.648438 75 75-33.648438 75-75 75zm0 0" fill="#6e6e6e"/><path d="m256 0c-41.398438 0-75 33.601562-75 75s33.601562 75 75 75 75-33.601562 75-75-33.601562-75-75-75zm0 0" fill="#6e6e6e"/><path d="m437 150c-41.351562 0-75-33.648438-75-75s33.648438-75 75-75 75 33.648438 75 75-33.648438 75-75 75zm0 0" fill="#5a5a5a"/><path d="m256 362c-41.398438 0-75 33.601562-75 75s33.601562 75 75 75 75-33.601562 75-75-33.601562-75-75-75zm0 0" fill="#6e6e6e"/><g fill="#5a5a5a"><path d="m437 512c-41.351562 0-75-33.648438-75-75s33.648438-75 75-75 75 33.648438 75 75-33.648438 75-75 75zm0 0"/><path d="m331 437c0 41.398438-33.601562 75-75 75v-150c41.398438 0 75 33.601562 75 75zm0 0"/><path d="m256 150v-150c41.398438 0 75 33.601562 75 75s-33.601562 75-75 75zm0 0"/></g></svg>