<?xml version="1.0" encoding="iso-8859-1"?>
<!-- Generator: Adobe Illustrator 19.0.0, SVG Export Plug-In . SVG Version: 6.00 Build 0)  -->
<svg version="1.1" id="Capa_1" xmlns="http://www.w3.org/2000/svg" xmlns:xlink="http://www.w3.org/1999/xlink" x="0px" y="0px"
	 viewBox="0 0 512 512" style="enable-background:new 0 0 512 512;" xml:space="preserve">
<path style="fill:#FFBC05;" d="M35.31,35.31V512h259.866c19.385,0,37.226-10.584,46.504-27.604l0,0
	c24.744-45.374,62.031-82.661,107.405-107.405l0,0c17.02-9.278,27.604-27.118,27.604-46.504v-95.17
	c0-9.366-3.725-18.353-10.346-24.973L292.193,36.193C269.012,13.021,237.577,0,204.8,0H70.621C51.121,0,35.31,15.81,35.31,35.31z"/>
<path style="fill:#E38100;" d="M35.31,491.282V512h259.866c19.385,0,37.226-10.584,46.504-27.604
	c24.744-45.374,62.031-82.661,107.405-107.405c17.02-9.278,27.604-27.118,27.604-46.504v-89.203
	C371.43,383.161,211.121,473.962,35.31,491.282z"/>
<path style="fill:#23AEC8;" d="M70.621,52.966V220.69h353.103L264.201,61.166c-16.552-16.552-39.009-25.856-62.42-25.856H88.276
	C78.521,35.31,70.621,43.211,70.621,52.966z"/>
<path style="fill:#1967A3;" d="M70.621,210.882v9.807h353.103l-84.065-84.074C256.424,180.586,164.626,205.921,70.621,210.882z"/>
<rect x="291.31" y="79.448" style="fill:#FFBC05;" width="17.655" height="141.241"/>
<path style="fill:#D12136;" d="M353.103,264.828h52.966c9.754,0,17.655,7.901,17.655,17.655l0,0c0,9.754-7.901,17.655-17.655,17.655
	h-52.966c-9.754,0-17.655-7.901-17.655-17.655l0,0C335.448,272.728,343.349,264.828,353.103,264.828z"/>
<path style="fill:#9C1928;" d="M413.308,266.417c4.034,8.836,0.15,19.262-8.686,23.305c-2.313,1.059-4.829,1.598-7.38,1.589h-52.966
	c-2.498-0.009-4.97-0.547-7.239-1.589c2.842,6.329,9.128,10.399,16.066,10.417h52.966c9.754-0.044,17.62-7.989,17.576-17.735
	C423.609,275.518,419.575,269.277,413.308,266.417z"/>
<g>
</g>
<g>
</g>
<g>
</g>
<g>
</g>
<g>
</g>
<g>
</g>
<g>
</g>
<g>
</g>
<g>
</g>
<g>
</g>
<g>
</g>
<g>
</g>
<g>
</g>
<g>
</g>
<g>
</g>
</svg>
