<?xml version="1.0" encoding="iso-8859-1"?>
<!-- Generator: Adobe Illustrator 19.0.0, SVG Export Plug-In . SVG Version: 6.00 Build 0)  -->
<svg version="1.1" id="Capa_1" xmlns="http://www.w3.org/2000/svg" xmlns:xlink="http://www.w3.org/1999/xlink" x="0px" y="0px"
	 viewBox="0 0 512 512" style="enable-background:new 0 0 512 512;" xml:space="preserve">
<g>
	<rect x="406" y="211" style="fill:#5A5A5A;" width="106" height="30"/>
	<rect x="406" y="271" style="fill:#5A5A5A;" width="106" height="30"/>
	<polygon style="fill:#5A5A5A;" points="457.211,181 406,181 406,151 444.789,151 474.789,121 512,121 512,151 487.211,151 	"/>
	<polygon style="fill:#5A5A5A;" points="512,391 474.789,391 444.789,361 406,361 406,331 457.211,331 487.211,361 512,361 	"/>
</g>
<g>
	<rect y="211" style="fill:#6E6E6E;" width="106" height="30"/>
	<rect y="271" style="fill:#6E6E6E;" width="106" height="30"/>
	<polygon style="fill:#6E6E6E;" points="106,181 54.789,181 24.789,151 0,151 0,121 37.211,121 67.211,151 106,151 	"/>
	<polygon style="fill:#6E6E6E;" points="37.211,391 0,391 0,361 24.789,361 54.789,331 106,331 106,361 67.211,361 	"/>
	<rect x="211" style="fill:#6E6E6E;" width="30" height="106"/>
</g>
<rect x="271" style="fill:#5A5A5A;" width="30" height="106"/>
<polygon style="fill:#6E6E6E;" points="181,106 151,106 151,67.211 121,37.211 121,0 151,0 151,24.789 181,54.789 "/>
<polygon style="fill:#5A5A5A;" points="361,106 331,106 331,54.789 361,24.789 361,0 391,0 391,37.211 361,67.211 "/>
<rect x="211" y="406" style="fill:#6E6E6E;" width="30" height="106"/>
<rect x="271" y="406" style="fill:#5A5A5A;" width="30" height="106"/>
<polygon style="fill:#6E6E6E;" points="151,512 121,512 121,474.789 151,444.789 151,406 181,406 181,457.211 151,487.211 "/>
<polygon style="fill:#5A5A5A;" points="391,512 361,512 361,487.211 331,457.211 331,406 361,406 361,444.789 391,474.789 "/>
<path style="fill:#FF9F00;" d="M91,91v330h330V91H91z"/>
<rect x="256" y="91" style="fill:#FF7816;" width="165" height="330"/>
<path style="fill:#6E6E6E;" d="M151,151v210h210V151H151z"/>
<rect x="256" y="151" style="fill:#5A5A5A;" width="105" height="210"/>
<g>
</g>
<g>
</g>
<g>
</g>
<g>
</g>
<g>
</g>
<g>
</g>
<g>
</g>
<g>
</g>
<g>
</g>
<g>
</g>
<g>
</g>
<g>
</g>
<g>
</g>
<g>
</g>
<g>
</g>
</svg>
