<svg viewBox="0 0 512 512" xmlns="http://www.w3.org/2000/svg"><path d="m477.398438 296.199219c2.402343-12.898438 3.601562-26.398438 3.601562-40.199219s-1.199219-27.300781-3.601562-40.199219l-135.898438 8.097657-15-25.796876 74.699219-113.402343c-20.398438-17.699219-43.800781-31.199219-69.296875-40.199219l-60.902344 121.5h-30l-60.902344-121.5c-25.796875 9-49.199218 22.796875-69.597656 40.199219l75 113.402343-15 25.796876-136.601562-8.097657c-2.699219 12.898438-3.898438 26.398438-3.898438 40.199219s1.199219 27.300781 3.898438 40.199219l136.601562-8.097657 15 25.796876-68.699219 104.402343 64.199219 47.699219 60-120h30l60.902344 121.5c25.496094-9 48.898437-22.5 69.296875-40.199219l-74.699219-113.402343 15-25.796876zm0 0" fill="#b6c4cf"/><path d="m341.5 288.101562-15 25.796876 74.699219 113.402343c-20.398438 17.699219-43.800781 31.199219-69.296875 40.199219l-60.902344-121.5h-15v-180h15l60.902344-121.5c25.496094 9 48.898437 22.5 69.296875 40.199219l-74.699219 113.402343 15 25.796876 135.898438-8.097657c2.402343 12.898438 3.601562 26.398438 3.601562 40.199219s-1.199219 27.300781-3.601562 40.199219zm0 0" fill="#9facba"/><path d="m256 0c-140.699219 0-256 115.300781-256 256s115.300781 256 256 256 256-115.300781 256-256-115.300781-256-256-256zm0 421c-90.902344 0-165-74.101562-165-165 0-90.902344 74.097656-165 165-165s165 74.097656 165 165c0 90.898438-74.097656 165-165 165zm0 0" fill="#5a5a5a"/><path d="m512 256c0 140.699219-115.300781 256-256 256v-91c90.902344 0 165-74.101562 165-165 0-90.902344-74.097656-165-165-165v-91c140.699219 0 256 115.300781 256 256zm0 0" fill="#444"/><path d="m256 211c-24.902344 0-45 20.097656-45 45 0 24.898438 20.097656 45 45 45s45-20.101562 45-45c0-24.902344-20.097656-45-45-45zm0 0" fill="#5a5a5a"/><path d="m256 301v-90c24.902344 0 45 20.097656 45 45 0 24.898438-20.097656 45-45 45zm0 0" fill="#444"/><path d="m256 241c-8.402344 0-15 6.597656-15 15 0 8.398438 6.597656 15 15 15s15-6.601562 15-15c0-8.402344-6.597656-15-15-15zm0 0" fill="#d9e7ec"/><path d="m271 256c0 8.398438-6.597656 15-15 15v-30c8.402344 0 15 6.597656 15 15zm0 0" fill="#c5d3dd"/></svg>